solid Shape0
facet normal 0.95105651629515364 -0.3090169943749474 0
outer loop
vertex 18.35 6.55 1
vertex 18.35 6.55 0.5
vertex 18.493 6.991 0.5
endloop
endfacet
facet normal 0.7777328427878698 -0.5650559857118953 -0.27539672884814143
outer loop
vertex 18.35 6.55 1
vertex 18.493 6.991 0.5
vertex 18.868 7.263 1
endloop
endfacet
facet normal 0.587785252292473 -0.80901699437494767 0
outer loop
vertex 18.493 6.991 0.5
vertex 18.868 7.263 0.5
vertex 18.868 7.263 1
endloop
endfacet
facet normal -0.309016994374948 -0.95105651629515331 0
outer loop
vertex 18.868 7.263 1
vertex 18.868 7.263 0.5
vertex 19.707 6.991 1
endloop
endfacet
facet normal -1.1460451476636196E-16 -0.878097652133578 -0.4784814660125275
outer loop
vertex 18.868 7.263 0.5
vertex 19.332 7.263 0.5
vertex 19.707 6.991 1
endloop
endfacet
facet normal -0.58778525229247425 -0.80901699437494656 0
outer loop
vertex 19.332 7.263 0.5
vertex 19.707 6.991 0.5
vertex 19.707 6.991 1
endloop
endfacet
facet normal -0.95105651629515342 -0.309016994374948 0
outer loop
vertex 19.707 6.991 1
vertex 19.707 6.991 0.5
vertex 19.85 6.55 1
endloop
endfacet
facet normal -0.95105651629515331 -0.30901699437494795 0
outer loop
vertex 19.707 6.991 0.5
vertex 19.85 6.55 0.5
vertex 19.85 6.55 1
endloop
endfacet
facet normal -0.95105651629515342 0.30901699437494734 0
outer loop
vertex 19.85 6.55 1
vertex 19.85 6.55 0.5
vertex 19.707 6.109 1
endloop
endfacet
facet normal -0.95105651629515364 0.3090169943749474 0
outer loop
vertex 19.85 6.55 0.5
vertex 19.707 6.109 0.5
vertex 19.707 6.109 1
endloop
endfacet
facet normal -0.58778525229247425 0.80901699437494656 0
outer loop
vertex 19.707 6.109 0.5
vertex 19.332 5.837 0.5
vertex 19.707 6.109 1
endloop
endfacet
facet normal -0.29706751177788832 0.91427979042842067 -0.27539672884814231
outer loop
vertex 19.707 6.109 1
vertex 19.332 5.837 0.5
vertex 18.868 5.837 1
endloop
endfacet
facet normal 0 1 0
outer loop
vertex 19.332 5.837 0.5
vertex 18.868 5.837 0.5
vertex 18.868 5.837 1
endloop
endfacet
facet normal 0.80901699437494756 0.58778525229247292 0
outer loop
vertex 18.868 5.837 1
vertex 18.868 5.837 0.5
vertex 18.35 6.55 1
endloop
endfacet
facet normal 0.51613284999676545 0.7103959232968059 -0.47848146601252534
outer loop
vertex 18.868 5.837 0.5
vertex 18.493 6.109 0.5
vertex 18.35 6.55 1
endloop
endfacet
facet normal 0.95105651629515364 0.3090169943749474 0
outer loop
vertex 18.35 6.55 1
vertex 18.493 6.109 0.5
vertex 18.35 6.55 0.5
endloop
endfacet
facet normal -0.37975900726502648 -0.12339118128226342 -0.91681934577257329
outer loop
vertex 20.35 6.55 0
vertex 19.825 7.077 0.146
vertex 20.111 7.285 0
endloop
endfacet
facet normal -0.23470397402370397 -0.32304230650896432 -0.91681934577257307
outer loop
vertex 19.825 7.077 0.146
vertex 19.377 7.403 0.146
vertex 20.111 7.285 0
endloop
endfacet
facet normal -0.23470397402370372 -0.32304230650896126 -0.91681934577257418
outer loop
vertex 20.111 7.285 0
vertex 19.377 7.403 0.146
vertex 19.486 7.739 0
endloop
endfacet
facet normal 0 -0.39930225045339923 -0.91681934577257418
outer loop
vertex 19.377 7.403 0.146
vertex 18.823 7.403 0.146
vertex 19.486 7.739 0
endloop
endfacet
facet normal 0 -0.39930225045339929 -0.91681934577257418
outer loop
vertex 19.486 7.739 0
vertex 18.823 7.403 0.146
vertex 18.714 7.739 0
endloop
endfacet
facet normal 0.23470397402370483 -0.32304230650896287 -0.91681934577257318
outer loop
vertex 18.823 7.403 0.146
vertex 18.375 7.077 0.146
vertex 18.714 7.739 0
endloop
endfacet
facet normal 0.23470397402370505 -0.3230423065089631 -0.91681934577257329
outer loop
vertex 18.714 7.739 0
vertex 18.375 7.077 0.146
vertex 18.089 7.285 0
endloop
endfacet
facet normal 0.37975900726502659 -0.12339118128226303 -0.91681934577257307
outer loop
vertex 18.375 7.077 0.146
vertex 18.204 6.55 0.146
vertex 18.089 7.285 0
endloop
endfacet
facet normal 0.37975900726502593 -0.12339118128226324 -0.91681934577257373
outer loop
vertex 18.089 7.285 0
vertex 18.204 6.55 0.146
vertex 17.85 6.55 0
endloop
endfacet
facet normal 0.37975900726502587 0.1233911812822628 -0.91681934577257351
outer loop
vertex 18.204 6.55 0.146
vertex 18.375 6.023 0.146
vertex 17.85 6.55 0
endloop
endfacet
facet normal 0.37975900726502626 0.12339118128226322 -0.91681934577257351
outer loop
vertex 17.85 6.55 0
vertex 18.375 6.023 0.146
vertex 18.089 5.815 0
endloop
endfacet
facet normal 0.23470397402370491 0.3230423065089621 -0.91681934577257362
outer loop
vertex 18.375 6.023 0.146
vertex 18.823 5.697 0.146
vertex 18.089 5.815 0
endloop
endfacet
facet normal 0.23470397402370496 0.32304230650896365 -0.916819345772573
outer loop
vertex 18.089 5.815 0
vertex 18.823 5.697 0.146
vertex 18.714 5.361 0
endloop
endfacet
facet normal 0 0.39930225045340012 -0.91681934577257362
outer loop
vertex 18.823 5.697 0.146
vertex 19.377 5.697 0.146
vertex 18.714 5.361 0
endloop
endfacet
facet normal 4.5907072846626108E-16 0.3993022504533994 -0.91681934577257418
outer loop
vertex 18.714 5.361 0
vertex 19.377 5.697 0.146
vertex 19.486 5.361 0
endloop
endfacet
facet normal -0.23470397402370219 0.32304230650896187 -0.91681934577257451
outer loop
vertex 19.377 5.697 0.146
vertex 19.825 6.023 0.146
vertex 19.486 5.361 0
endloop
endfacet
facet normal -0.23470397402370372 0.32304230650896254 -0.91681934577257385
outer loop
vertex 19.486 5.361 0
vertex 19.825 6.023 0.146
vertex 20.111 5.815 0
endloop
endfacet
facet normal -0.37975900726502632 0.12339118128226273 -0.91681934577257351
outer loop
vertex 19.825 6.023 0.146
vertex 19.996 6.55 0.146
vertex 20.111 5.815 0
endloop
endfacet
facet normal -0.379759007265026 0.12339118128226281 -0.91681934577257362
outer loop
vertex 20.111 5.815 0
vertex 19.996 6.55 0.146
vertex 20.35 6.55 0
endloop
endfacet
facet normal -0.37975900726502587 -0.1233911812822628 -0.91681934577257351
outer loop
vertex 19.996 6.55 0.146
vertex 19.825 7.077 0.146
vertex 20.35 6.55 0
endloop
endfacet
facet normal -0.88487062873992606 -0.28751189589559878 -0.36652541536969319
outer loop
vertex 19.996 6.55 0.146
vertex 19.707 6.991 0.5
vertex 19.825 7.077 0.146
endloop
endfacet
facet normal -0.54688012420776411 -0.7527159156245965 -0.3665254153696928
outer loop
vertex 19.707 6.991 0.5
vertex 19.332 7.263 0.5
vertex 19.825 7.077 0.146
endloop
endfacet
facet normal -0.54688012420776255 -0.75271591562459916 -0.36652541536968924
outer loop
vertex 19.825 7.077 0.146
vertex 19.332 7.263 0.5
vertex 19.377 7.403 0.146
endloop
endfacet
facet normal 0 -0.930408039457999 -0.36652541536968847
outer loop
vertex 19.332 7.263 0.5
vertex 18.868 7.263 0.5
vertex 19.377 7.403 0.146
endloop
endfacet
facet normal 0 -0.930408039457999 -0.36652541536968847
outer loop
vertex 19.377 7.403 0.146
vertex 18.868 7.263 0.5
vertex 18.823 7.403 0.146
endloop
endfacet
facet normal 0.54688012420776488 -0.75271591562459772 -0.36652541536968897
outer loop
vertex 18.868 7.263 0.5
vertex 18.493 6.991 0.5
vertex 18.823 7.403 0.146
endloop
endfacet
facet normal 0.54688012420776566 -0.75271591562459761 -0.36652541536968808
outer loop
vertex 18.823 7.403 0.146
vertex 18.493 6.991 0.5
vertex 18.375 7.077 0.146
endloop
endfacet
facet normal 0.88487062873992939 -0.28751189589559867 -0.36652541536968547
outer loop
vertex 18.493 6.991 0.5
vertex 18.35 6.55 0.5
vertex 18.375 7.077 0.146
endloop
endfacet
facet normal 0.88487062873992839 -0.2875118958955995 -0.3665254153696868
outer loop
vertex 18.375 7.077 0.146
vertex 18.35 6.55 0.5
vertex 18.204 6.55 0.146
endloop
endfacet
facet normal 0.88487062873992894 0.28751189589559795 -0.36652541536968708
outer loop
vertex 18.35 6.55 0.5
vertex 18.493 6.109 0.5
vertex 18.204 6.55 0.146
endloop
endfacet
facet normal 0.88487062873992917 0.28751189589559978 -0.36652541536968491
outer loop
vertex 18.204 6.55 0.146
vertex 18.493 6.109 0.5
vertex 18.375 6.023 0.146
endloop
endfacet
facet normal 0.54688012420776555 0.7527159156245985 -0.36652541536968641
outer loop
vertex 18.493 6.109 0.5
vertex 18.868 5.837 0.5
vertex 18.375 6.023 0.146
endloop
endfacet
facet normal 0.54688012420776655 0.75271591562459672 -0.3665254153696888
outer loop
vertex 18.375 6.023 0.146
vertex 18.868 5.837 0.5
vertex 18.823 5.697 0.146
endloop
endfacet
facet normal 0 0.930408039457999 -0.36652541536968847
outer loop
vertex 18.868 5.837 0.5
vertex 19.332 5.837 0.5
vertex 18.823 5.697 0.146
endloop
endfacet
facet normal 0 0.930408039457999 -0.36652541536968847
outer loop
vertex 18.823 5.697 0.146
vertex 19.332 5.837 0.5
vertex 19.377 5.697 0.146
endloop
endfacet
facet normal -0.54688012420776366 0.7527159156245985 -0.36652541536968913
outer loop
vertex 19.332 5.837 0.5
vertex 19.707 6.109 0.5
vertex 19.377 5.697 0.146
endloop
endfacet
facet normal -0.54688012420776222 0.75271591562459872 -0.36652541536969091
outer loop
vertex 19.377 5.697 0.146
vertex 19.707 6.109 0.5
vertex 19.825 6.023 0.146
endloop
endfacet
facet normal -0.88487062873992728 0.28751189589559678 -0.36652541536969235
outer loop
vertex 19.707 6.109 0.5
vertex 19.85 6.55 0.5
vertex 19.825 6.023 0.146
endloop
endfacet
facet normal -0.88487062873992584 0.28751189589559822 -0.36652541536969468
outer loop
vertex 19.825 6.023 0.146
vertex 19.85 6.55 0.5
vertex 19.996 6.55 0.146
endloop
endfacet
facet normal -0.884870628739926 -0.28751189589559756 -0.36652541536969474
outer loop
vertex 19.85 6.55 0.5
vertex 19.707 6.991 0.5
vertex 19.996 6.55 0.146
endloop
endfacet
facet normal 0 0 -1
outer loop
vertex -2.625 12.001 0
vertex -1.346 12.448 0
vertex 0 10.1 0
endloop
endfacet
facet normal 0 0 -1
outer loop
vertex -1.346 12.448 0
vertex 0 12.6 0
vertex 0 10.1 0
endloop
endfacet
facet normal 0 0 -1
outer loop
vertex 0 10.1 0
vertex 0 12.6 0
vertex 16.1 10.1 0
endloop
endfacet
facet normal 0 0 -1
outer loop
vertex 0 12.6 0
vertex 16.1 12.6 0
vertex 16.1 10.1 0
endloop
endfacet
facet normal 0 0 -1
outer loop
vertex -4.25 6.55 0
vertex -4.011 5.815 0
vertex -5.898 5.204 0
endloop
endfacet
facet normal 0 0 -1
outer loop
vertex -2.614 5.361 0
vertex -1.989 5.815 0
vertex 0 3 0
endloop
endfacet
facet normal 0 0 -1
outer loop
vertex -1.989 5.815 0
vertex -1.75 6.55 0
vertex 0 3 0
endloop
endfacet
facet normal 0 0 -1
outer loop
vertex 0 3 0
vertex -1.75 6.55 0
vertex 0 10.1 0
endloop
endfacet
facet normal 0 0 -1
outer loop
vertex -1.75 6.55 0
vertex -1.989 7.285 0
vertex 0 10.1 0
endloop
endfacet
facet normal 0 0 -1
outer loop
vertex 0 10.1 0
vertex -1.989 7.285 0
vertex -2.625 12.001 0
endloop
endfacet
facet normal 0 0 -0.99999999999999989
outer loop
vertex -1.989 7.285 0
vertex -2.614 7.739 0
vertex -2.625 12.001 0
endloop
endfacet
facet normal 0 0 -1
outer loop
vertex -2.625 12.001 0
vertex -2.614 7.739 0
vertex -3.772 11.28 0
endloop
endfacet
facet normal 0 0 -1
outer loop
vertex -2.614 7.739 0
vertex -3.386 7.739 0
vertex -3.772 11.28 0
endloop
endfacet
facet normal 0 0 -1
outer loop
vertex 0 0.5 0
vertex 0 3 0
vertex 16.1 0.5 0
endloop
endfacet
facet normal 0 0 -1
outer loop
vertex 0 3 0
vertex 16.1 3 0
vertex 16.1 0.5 0
endloop
endfacet
facet normal 0 0 -1
outer loop
vertex 16.1 0.5 0
vertex 16.1 3 0
vertex 17.446 0.652 0
endloop
endfacet
facet normal 0 0 -0.99999999999999989
outer loop
vertex 0 0.5 0
vertex -1.346 0.652 0
vertex 0 3 0
endloop
endfacet
facet normal 0 0 -1
outer loop
vertex -1.346 0.652 0
vertex -2.625 1.099 0
vertex 0 3 0
endloop
endfacet
facet normal 0 0 -1
outer loop
vertex 0 3 0
vertex -2.625 1.099 0
vertex -2.614 5.361 0
endloop
endfacet
facet normal 0 0 -1
outer loop
vertex -2.625 1.099 0
vertex -3.772 1.82 0
vertex -2.614 5.361 0
endloop
endfacet
facet normal 0 0 -1
outer loop
vertex -2.614 5.361 0
vertex -3.772 1.82 0
vertex -3.386 5.361 0
endloop
endfacet
facet normal 0 0 -0.99999999999999989
outer loop
vertex -3.772 1.82 0
vertex -4.73 2.778 0
vertex -3.386 5.361 0
endloop
endfacet
facet normal 0 0 -1
outer loop
vertex -3.386 5.361 0
vertex -4.73 2.778 0
vertex -4.011 5.815 0
endloop
endfacet
facet normal 0 0 -1
outer loop
vertex -4.73 2.778 0
vertex -5.451 3.925 0
vertex -4.011 5.815 0
endloop
endfacet
facet normal 0 0 -0.99999999999999989
outer loop
vertex -4.011 5.815 0
vertex -5.451 3.925 0
vertex -5.898 5.204 0
endloop
endfacet
facet normal 0 0 -1
outer loop
vertex -5.898 5.204 0
vertex -6.05 6.55 0
vertex -4.25 6.55 0
endloop
endfacet
facet normal 0 0 -1
outer loop
vertex -6.05 6.55 0
vertex -5.898 7.896 0
vertex -4.25 6.55 0
endloop
endfacet
facet normal 0 0 -1
outer loop
vertex -4.25 6.55 0
vertex -5.898 7.896 0
vertex -4.011 7.285 0
endloop
endfacet
facet normal 0 0 -1
outer loop
vertex -5.898 7.896 0
vertex -5.451 9.175 0
vertex -4.011 7.285 0
endloop
endfacet
facet normal 0 0 -0.99999999999999989
outer loop
vertex -4.011 7.285 0
vertex -5.451 9.175 0
vertex -3.386 7.739 0
endloop
endfacet
facet normal 0 0 -1
outer loop
vertex -5.451 9.175 0
vertex -4.73 10.322 0
vertex -3.386 7.739 0
endloop
endfacet
facet normal 0 0 -1
outer loop
vertex -3.386 7.739 0
vertex -4.73 10.322 0
vertex -3.772 11.28 0
endloop
endfacet
facet normal 0 0 -1
outer loop
vertex 20.35 6.55 0
vertex 20.111 7.285 0
vertex 21.998 7.896 0
endloop
endfacet
facet normal 0 0 -1
outer loop
vertex 16.1 12.6 0
vertex 17.446 12.448 0
vertex 16.1 10.1 0
endloop
endfacet
facet normal 0 0 -1
outer loop
vertex 17.446 12.448 0
vertex 18.725 12.001 0
vertex 16.1 10.1 0
endloop
endfacet
facet normal 0 0 -1
outer loop
vertex 16.1 10.1 0
vertex 18.725 12.001 0
vertex 18.714 7.739 0
endloop
endfacet
facet normal 0 0 -1
outer loop
vertex 18.725 12.001 0
vertex 19.872 11.28 0
vertex 18.714 7.739 0
endloop
endfacet
facet normal 0 0 -0.99999999999999989
outer loop
vertex 18.714 7.739 0
vertex 19.872 11.28 0
vertex 19.486 7.739 0
endloop
endfacet
facet normal 0 0 -1
outer loop
vertex 19.872 11.28 0
vertex 20.83 10.322 0
vertex 19.486 7.739 0
endloop
endfacet
facet normal 0 0 -1
outer loop
vertex 19.486 7.739 0
vertex 20.83 10.322 0
vertex 20.111 7.285 0
endloop
endfacet
facet normal 0 0 -1
outer loop
vertex 20.83 10.322 0
vertex 21.551 9.175 0
vertex 20.111 7.285 0
endloop
endfacet
facet normal 0 0 -1
outer loop
vertex 20.111 7.285 0
vertex 21.551 9.175 0
vertex 21.998 7.896 0
endloop
endfacet
facet normal 0 0 -1
outer loop
vertex 18.714 7.739 0
vertex 18.089 7.285 0
vertex 16.1 10.1 0
endloop
endfacet
facet normal 0 0 -1
outer loop
vertex 18.089 7.285 0
vertex 17.85 6.55 0
vertex 16.1 10.1 0
endloop
endfacet
facet normal 0 0 -0.99999999999999989
outer loop
vertex 16.1 10.1 0
vertex 17.85 6.55 0
vertex 16.1 3 0
endloop
endfacet
facet normal 0 0 -1
outer loop
vertex 17.85 6.55 0
vertex 18.089 5.815 0
vertex 16.1 3 0
endloop
endfacet
facet normal 0 0 -1
outer loop
vertex 16.1 3 0
vertex 18.089 5.815 0
vertex 17.446 0.652 0
endloop
endfacet
facet normal 0 0 -1
outer loop
vertex 18.089 5.815 0
vertex 18.714 5.361 0
vertex 17.446 0.652 0
endloop
endfacet
facet normal 0 0 -1
outer loop
vertex 17.446 0.652 0
vertex 18.714 5.361 0
vertex 18.725 1.099 0
endloop
endfacet
facet normal 0 0 -1
outer loop
vertex 21.998 7.896 0
vertex 22.15 6.55 0
vertex 20.35 6.55 0
endloop
endfacet
facet normal 0 0 -0.99999999999999989
outer loop
vertex 22.15 6.55 0
vertex 21.998 5.204 0
vertex 20.35 6.55 0
endloop
endfacet
facet normal 0 0 -1
outer loop
vertex 20.35 6.55 0
vertex 21.998 5.204 0
vertex 20.111 5.815 0
endloop
endfacet
facet normal 0 0 -1
outer loop
vertex 21.998 5.204 0
vertex 21.551 3.925 0
vertex 20.111 5.815 0
endloop
endfacet
facet normal 0 0 -1
outer loop
vertex 20.111 5.815 0
vertex 21.551 3.925 0
vertex 19.486 5.361 0
endloop
endfacet
facet normal 0 0 -1
outer loop
vertex 21.551 3.925 0
vertex 20.83 2.778 0
vertex 19.486 5.361 0
endloop
endfacet
facet normal 0 0 -1
outer loop
vertex 19.486 5.361 0
vertex 20.83 2.778 0
vertex 18.714 5.361 0
endloop
endfacet
facet normal 0 0 -1
outer loop
vertex 20.83 2.778 0
vertex 19.872 1.82 0
vertex 18.714 5.361 0
endloop
endfacet
facet normal 0 0 -1
outer loop
vertex 18.714 5.361 0
vertex 19.872 1.82 0
vertex 18.725 1.099 0
endloop
endfacet
facet normal 2.2066544588822987E-16 -1 0
outer loop
vertex 0 10.1 0
vertex 16.1 10.1 0
vertex 0 10.1 6.5
endloop
endfacet
facet normal 2.2066544588822987E-16 -1 0
outer loop
vertex 16.1 10.1 0
vertex 16.1 10.1 6.5
vertex 0 10.1 6.5
endloop
endfacet
facet normal 2.2066544588822984E-16 0 -1
outer loop
vertex 16.1 9.6 6.5
vertex 0 9.6 6.5
vertex 16.1 10.1 6.5
endloop
endfacet
facet normal 2.2066544588822987E-16 1.6210031123520825E-63 -1
outer loop
vertex 0 9.6 6.5
vertex 0 10.1 6.5
vertex 16.1 10.1 6.5
endloop
endfacet
facet normal 1.1033272294411492E-16 -1 -4.3518585848596876E-47
outer loop
vertex 0 9.6 7
vertex 0 9.6 6.5
vertex 16.1 9.6 7
endloop
endfacet
facet normal 1.1033272294411492E-16 -1 0
outer loop
vertex 0 9.6 6.5
vertex 16.1 9.6 6.5
vertex 16.1 9.6 7
endloop
endfacet
facet normal -2.7583180736028732E-16 1 0
outer loop
vertex 16.1 3 0
vertex 0 3 0
vertex 16.1 3 6.5
endloop
endfacet
facet normal -2.7583180736028732E-16 0.99999999999999989 0
outer loop
vertex 0 3 0
vertex 0 3 6.5
vertex 16.1 3 6.5
endloop
endfacet
facet normal -0.99999999999999989 0 0
outer loop
vertex 16.1 9.6 6.5
vertex 16.1 10.1 6.5
vertex 16.1 10.1 0
endloop
endfacet
facet normal -0.99999999999999989 0 0
outer loop
vertex 16.1 3 0
vertex 16.1 3 6.5
vertex 16.1 3.5 6.5
endloop
endfacet
facet normal -1 0 0
outer loop
vertex 16.1 3.5 7
vertex 16.1 9.6 7
vertex 16.1 3.5 6.5
endloop
endfacet
facet normal -1 0 0
outer loop
vertex 16.1 9.6 7
vertex 16.1 9.6 6.5
vertex 16.1 3.5 6.5
endloop
endfacet
facet normal -1 0 0
outer loop
vertex 16.1 3.5 6.5
vertex 16.1 9.6 6.5
vertex 16.1 3 0
endloop
endfacet
facet normal -1 0 0
outer loop
vertex 16.1 9.6 6.5
vertex 16.1 10.1 0
vertex 16.1 3 0
endloop
endfacet
facet normal 1 6.1230317691118814E-17 0
outer loop
vertex 0 3.5 6.5
vertex 0 3 6.5
vertex 0 3 0
endloop
endfacet
facet normal 1 6.1230317691118937E-17 0
outer loop
vertex 0 10.1 0
vertex 0 10.1 6.5
vertex 0 9.6 6.5
endloop
endfacet
facet normal 1 6.1230317691118863E-17 0
outer loop
vertex 0 9.6 7
vertex 0 3.5 7
vertex 0 9.6 6.5
endloop
endfacet
facet normal 1 6.1230317691118863E-17 2.5398201141606738E-32
outer loop
vertex 0 3.5 7
vertex 0 3.5 6.5
vertex 0 9.6 6.5
endloop
endfacet
facet normal 0.99999999999999989 6.1230317691118851E-17 -6.839115666323404E-33
outer loop
vertex 0 9.6 6.5
vertex 0 3.5 6.5
vertex 0 10.1 0
endloop
endfacet
facet normal 1 6.1230317691118851E-17 -3.7391835973368645E-33
outer loop
vertex 0 3.5 6.5
vertex 0 3 0
vertex 0 10.1 0
endloop
endfacet
facet normal 2.7583180736028732E-16 1 -4.2158630040828226E-46
outer loop
vertex 0 3.5 6.5
vertex 0 3.5 7
vertex 16.1 3.5 6.5
endloop
endfacet
facet normal 2.7583180736028732E-16 1 0
outer loop
vertex 0 3.5 7
vertex 16.1 3.5 7
vertex 16.1 3.5 6.5
endloop
endfacet
facet normal -2.2066544588822984E-16 0 -1
outer loop
vertex 16.1 3 6.5
vertex 0 3 6.5
vertex 16.1 3.5 6.5
endloop
endfacet
facet normal -2.2066544588822987E-16 3.6323577792282439E-63 -1
outer loop
vertex 0 3 6.5
vertex 0 3.5 6.5
vertex 16.1 3.5 6.5
endloop
endfacet
facet normal 0.043078041318553632 0.382328191283047 -0.92302190467311829
outer loop
vertex 16.1 12.6 0
vertex 16.1 12.954 0.146
vertex 17.525 12.793 0.146
endloop
endfacet
facet normal 0.1035367710666919 0.91891425890263734 -0.38062674869549057
outer loop
vertex 16.1 12.954 0.146
vertex 16.1 13.1 0.5
vertex 17.558 12.936 0.5
endloop
endfacet
facet normal 0.10353677106669336 0.91891425890263456 -0.38062674869549673
outer loop
vertex 16.1 12.954 0.146
vertex 17.558 12.936 0.5
vertex 17.525 12.793 0.146
endloop
endfacet
facet normal 0.30541854716688643 0.8728360609094723 -0.3806267486954964
outer loop
vertex 17.558 12.936 0.5
vertex 18.942 12.451 0.5
vertex 17.525 12.793 0.146
endloop
endfacet
facet normal 0.30541854716688593 0.872836060909474 -0.38062674869549268
outer loop
vertex 17.525 12.793 0.146
vertex 18.942 12.451 0.5
vertex 18.878 12.319 0.146
endloop
endfacet
facet normal 0.49198536199534459 0.78299021817632375 -0.38062674869549373
outer loop
vertex 18.942 12.451 0.5
vertex 20.184 11.671 0.5
vertex 18.878 12.319 0.146
endloop
endfacet
facet normal 0.49198536199534465 0.78299021817632364 -0.38062674869549418
outer loop
vertex 18.878 12.319 0.146
vertex 20.184 11.671 0.5
vertex 20.093 11.556 0.146
endloop
endfacet
facet normal 0.65388197642139556 0.65388197642139323 -0.38062674869549312
outer loop
vertex 20.184 11.671 0.5
vertex 21.221 10.634 0.5
vertex 20.093 11.556 0.146
endloop
endfacet
facet normal 0.65388197642139578 0.65388197642139467 -0.38062674869549035
outer loop
vertex 20.093 11.556 0.146
vertex 21.221 10.634 0.5
vertex 21.106 10.543 0.146
endloop
endfacet
facet normal 0.78299021817632475 0.49198536199534637 -0.38062674869548957
outer loop
vertex 21.221 10.634 0.5
vertex 22.001 9.392 0.5
vertex 21.106 10.543 0.146
endloop
endfacet
facet normal 0.78299021817632419 0.49198536199534493 -0.3806267486954929
outer loop
vertex 21.106 10.543 0.146
vertex 22.001 9.392 0.5
vertex 21.869 9.328 0.146
endloop
endfacet
facet normal 0.87283606090947319 0.30541854716688677 -0.38062674869549384
outer loop
vertex 22.001 9.392 0.5
vertex 22.486 8.008 0.5
vertex 21.869 9.328 0.146
endloop
endfacet
facet normal 0.87283606090947108 0.30541854716688394 -0.38062674869550078
outer loop
vertex 21.869 9.328 0.146
vertex 22.486 8.008 0.5
vertex 22.343 7.975 0.146
endloop
endfacet
facet normal 0.91891425890263334 0.10353677106668897 -0.38062674869550073
outer loop
vertex 22.486 8.008 0.5
vertex 22.65 6.55 0.5
vertex 22.343 7.975 0.146
endloop
endfacet
facet normal 0.91891425890263878 0.10353677106669364 -0.38062674869548652
outer loop
vertex 22.343 7.975 0.146
vertex 22.65 6.55 0.5
vertex 22.504 6.55 0.146
endloop
endfacet
facet normal 0.91891425890263911 -0.10353677106669 -0.38062674869548674
outer loop
vertex 22.65 6.55 0.5
vertex 22.486 5.092 0.5
vertex 22.504 6.55 0.146
endloop
endfacet
facet normal 0.918914258902633 -0.10353677106669329 -0.38062674869550062
outer loop
vertex 22.504 6.55 0.146
vertex 22.486 5.092 0.5
vertex 22.343 5.125 0.146
endloop
endfacet
facet normal 0.872836060909471 -0.30541854716688471 -0.38062674869550017
outer loop
vertex 22.486 5.092 0.5
vertex 22.001 3.708 0.5
vertex 22.343 5.125 0.146
endloop
endfacet
facet normal 0.87283606090947352 -0.3054185471668841 -0.38062674869549512
outer loop
vertex 22.343 5.125 0.146
vertex 22.001 3.708 0.5
vertex 21.869 3.772 0.146
endloop
endfacet
facet normal 0.78299021817632264 -0.49198536199534548 -0.38062674869549495
outer loop
vertex 22.001 3.708 0.5
vertex 21.221 2.466 0.5
vertex 21.869 3.772 0.146
endloop
endfacet
facet normal 0.78299021817632541 -0.49198536199534554 -0.38062674869548951
outer loop
vertex 21.869 3.772 0.146
vertex 21.221 2.466 0.5
vertex 21.106 2.557 0.146
endloop
endfacet
facet normal 0.65388197642139545 -0.65388197642139512 -0.3806267486954904
outer loop
vertex 21.221 2.466 0.5
vertex 20.184 1.429 0.5
vertex 21.106 2.557 0.146
endloop
endfacet
facet normal 0.65388197642139456 -0.65388197642139478 -0.3806267486954919
outer loop
vertex 21.106 2.557 0.146
vertex 20.184 1.429 0.5
vertex 20.093 1.544 0.146
endloop
endfacet
facet normal 0.49198536199534471 -0.78299021817632453 -0.38062674869549246
outer loop
vertex 20.184 1.429 0.5
vertex 18.942 0.649 0.5
vertex 20.093 1.544 0.146
endloop
endfacet
facet normal 0.49198536199534326 -0.78299021817632375 -0.38062674869549551
outer loop
vertex 20.093 1.544 0.146
vertex 18.942 0.649 0.5
vertex 18.878 0.781 0.146
endloop
endfacet
facet normal 0.30541854716688621 -0.87283606090947319 -0.38062674869549462
outer loop
vertex 18.942 0.649 0.5
vertex 17.558 0.164 0.5
vertex 18.878 0.781 0.146
endloop
endfacet
facet normal 0.30541854716688616 -0.872836060909473 -0.3806267486954944
outer loop
vertex 18.878 0.781 0.146
vertex 17.558 0.164 0.5
vertex 17.525 0.307 0.146
endloop
endfacet
facet normal 0.10353677106669182 -0.91891425890263578 -0.38062674869549479
outer loop
vertex 17.558 0.164 0.5
vertex 16.1 0 0.5
vertex 17.525 0.307 0.146
endloop
endfacet
facet normal 0.1035367710666918 -0.91891425890263567 -0.38062674869549479
outer loop
vertex 17.525 0.307 0.146
vertex 16.1 0 0.5
vertex 16.1 0.146 0.146
endloop
endfacet
facet normal 0.043078041318553369 0.38232819128304851 -0.92302190467311762
outer loop
vertex 16.1 12.6 0
vertex 17.525 12.793 0.146
vertex 17.446 12.448 0
endloop
endfacet
facet normal 0.12707401108571159 0.36315665930862273 -0.92302190467311729
outer loop
vertex 17.525 12.793 0.146
vertex 18.878 12.319 0.146
vertex 17.446 12.448 0
endloop
endfacet
facet normal 0.12707401108571154 0.363156659308622 -0.92302190467311762
outer loop
vertex 17.446 12.448 0
vertex 18.878 12.319 0.146
vertex 18.725 12.001 0
endloop
endfacet
facet normal 0.20469795932217244 0.32577493602631336 -0.92302190467311762
outer loop
vertex 18.878 12.319 0.146
vertex 20.093 11.556 0.146
vertex 18.725 12.001 0
endloop
endfacet
facet normal 0.20469795932217225 0.32577493602631274 -0.92302190467311773
outer loop
vertex 18.725 12.001 0
vertex 20.093 11.556 0.146
vertex 19.872 11.28 0
endloop
endfacet
facet normal 0.2720574971339787 0.2720574971339782 -0.92302190467311807
outer loop
vertex 20.093 11.556 0.146
vertex 21.106 10.543 0.146
vertex 19.872 11.28 0
endloop
endfacet
facet normal 0.27205749713397742 0.27205749713397592 -0.92302190467311906
outer loop
vertex 19.872 11.28 0
vertex 21.106 10.543 0.146
vertex 20.83 10.322 0
endloop
endfacet
facet normal 0.32577493602631008 0.20469795932217033 -0.92302190467311918
outer loop
vertex 21.106 10.543 0.146
vertex 21.869 9.328 0.146
vertex 20.83 10.322 0
endloop
endfacet
facet normal 0.32577493602631313 0.20469795932217383 -0.92302190467311729
outer loop
vertex 20.83 10.322 0
vertex 21.869 9.328 0.146
vertex 21.551 9.175 0
endloop
endfacet
facet normal 0.36315665930862323 0.12707401108571137 -0.92302190467311729
outer loop
vertex 21.869 9.328 0.146
vertex 22.343 7.975 0.146
vertex 21.551 9.175 0
endloop
endfacet
facet normal 0.3631566593086224 0.1270740110857107 -0.92302190467311762
outer loop
vertex 21.551 9.175 0
vertex 22.343 7.975 0.146
vertex 21.998 7.896 0
endloop
endfacet
facet normal 0.38232819128304829 0.043078041318553695 -0.92302190467311773
outer loop
vertex 22.343 7.975 0.146
vertex 22.504 6.55 0.146
vertex 21.998 7.896 0
endloop
endfacet
facet normal 0.382328191283047 0.043078041318553174 -0.92302190467311818
outer loop
vertex 21.998 7.896 0
vertex 22.504 6.55 0.146
vertex 22.15 6.55 0
endloop
endfacet
facet normal 0.38232819128304696 -0.043078041318553688 -0.92302190467311818
outer loop
vertex 22.504 6.55 0.146
vertex 22.343 5.125 0.146
vertex 22.15 6.55 0
endloop
endfacet
facet normal 0.38232819128305173 -0.043078041318552841 -0.92302190467311618
outer loop
vertex 22.15 6.55 0
vertex 22.343 5.125 0.146
vertex 21.998 5.204 0
endloop
endfacet
facet normal 0.36315665930862534 -0.12707401108571179 -0.92302190467311629
outer loop
vertex 22.343 5.125 0.146
vertex 21.869 3.772 0.146
vertex 21.998 5.204 0
endloop
endfacet
facet normal 0.36315665930862334 -0.12707401108571167 -0.923021904673117
outer loop
vertex 21.998 5.204 0
vertex 21.869 3.772 0.146
vertex 21.551 3.925 0
endloop
endfacet
facet normal 0.32577493602631419 -0.20469795932217283 -0.92302190467311729
outer loop
vertex 21.869 3.772 0.146
vertex 21.106 2.557 0.146
vertex 21.551 3.925 0
endloop
endfacet
facet normal 0.32577493602630969 -0.20469795932217161 -0.92302190467311906
outer loop
vertex 21.551 3.925 0
vertex 21.106 2.557 0.146
vertex 20.83 2.778 0
endloop
endfacet
facet normal 0.27205749713397709 -0.2720574971339772 -0.92302190467311873
outer loop
vertex 21.106 2.557 0.146
vertex 20.093 1.544 0.146
vertex 20.83 2.778 0
endloop
endfacet
facet normal 0.2720574971339797 -0.27205749713397859 -0.92302190467311762
outer loop
vertex 20.83 2.778 0
vertex 20.093 1.544 0.146
vertex 19.872 1.82 0
endloop
endfacet
facet normal 0.2046979593221718 -0.32577493602631336 -0.92302190467311773
outer loop
vertex 20.093 1.544 0.146
vertex 18.878 0.781 0.146
vertex 19.872 1.82 0
endloop
endfacet
facet normal 0.20469795932217355 -0.32577493602631491 -0.92302190467311684
outer loop
vertex 19.872 1.82 0
vertex 18.878 0.781 0.146
vertex 18.725 1.099 0
endloop
endfacet
facet normal 0.12707401108571198 -0.36315665930862323 -0.92302190467311707
outer loop
vertex 18.878 0.781 0.146
vertex 17.525 0.307 0.146
vertex 18.725 1.099 0
endloop
endfacet
facet normal 0.12707401108571142 -0.36315665930862245 -0.92302190467311751
outer loop
vertex 18.725 1.099 0
vertex 17.525 0.307 0.146
vertex 17.446 0.652 0
endloop
endfacet
facet normal 0.04307804131855307 -0.38232819128304829 -0.92302190467311784
outer loop
vertex 17.525 0.307 0.146
vertex 16.1 0.146 0.146
vertex 17.446 0.652 0
endloop
endfacet
facet normal 0.043078041318553126 -0.38232819128304829 -0.92302190467311762
outer loop
vertex 17.446 0.652 0
vertex 16.1 0.146 0.146
vertex 16.1 0.5 0
endloop
endfacet
facet normal -1.0193414449430626E-16 0.92387953251128707 -0.38268343236508939
outer loop
vertex 0 13.1 0.5
vertex 16.1 13.1 0.5
vertex 0 12.954 0.146
endloop
endfacet
facet normal -1.5767133551394168E-16 0.92387953251128774 -0.38268343236508706
outer loop
vertex 16.1 13.1 0.5
vertex 16.1 12.954 0.146
vertex 0 12.954 0.146
endloop
endfacet
facet normal -1.7601106976721743E-16 0.38268343236509211 -0.92387953251128574
outer loop
vertex 0 12.954 0.146
vertex 16.1 12.954 0.146
vertex 0 12.6 0
endloop
endfacet
facet normal -8.446678688246851E-17 0.38268343236508862 -0.92387953251128729
outer loop
vertex 16.1 12.954 0.146
vertex 16.1 12.6 0
vertex 0 12.6 0
endloop
endfacet
facet normal -1.1033272294411495E-16 1 0
outer loop
vertex 0 13.1 0.5
vertex 0 13.1 1
vertex 16.1 13.1 0.5
endloop
endfacet
facet normal -1.1033272294411495E-16 1 0
outer loop
vertex 0 13.1 1
vertex 16.1 13.1 1
vertex 16.1 13.1 0.5
endloop
endfacet
facet normal -0.043078041318553258 -0.38232819128305079 -0.92302190467311662
outer loop
vertex 0 0.5 0
vertex 0 0.146 0.146
vertex -1.425 0.307 0.146
endloop
endfacet
facet normal -0.10353677106669158 -0.91891425890263612 -0.38062674869549362
outer loop
vertex 0 0.146 0.146
vertex 0 0 0.5
vertex -1.458 0.164 0.5
endloop
endfacet
facet normal -0.10353677106669158 -0.918914258902636 -0.38062674869549357
outer loop
vertex 0 0.146 0.146
vertex -1.458 0.164 0.5
vertex -1.425 0.307 0.146
endloop
endfacet
facet normal -0.30541854716688682 -0.8728360609094733 -0.38062674869549362
outer loop
vertex -1.458 0.164 0.5
vertex -2.842 0.649 0.5
vertex -1.425 0.307 0.146
endloop
endfacet
facet normal -0.30541854716688688 -0.87283606090947308 -0.380626748695494
outer loop
vertex -1.425 0.307 0.146
vertex -2.842 0.649 0.5
vertex -2.778 0.781 0.146
endloop
endfacet
facet normal -0.49198536199534521 -0.78299021817632342 -0.38062674869549395
outer loop
vertex -2.842 0.649 0.5
vertex -4.084 1.429 0.5
vertex -2.778 0.781 0.146
endloop
endfacet
facet normal -0.49198536199534509 -0.78299021817632453 -0.38062674869549157
outer loop
vertex -2.778 0.781 0.146
vertex -4.084 1.429 0.5
vertex -3.993 1.544 0.146
endloop
endfacet
facet normal -0.65388197642139512 -0.65388197642139478 -0.3806267486954914
outer loop
vertex -4.084 1.429 0.5
vertex -5.121 2.466 0.5
vertex -3.993 1.544 0.146
endloop
endfacet
facet normal -0.65388197642139489 -0.65388197642139356 -0.3806267486954939
outer loop
vertex -3.993 1.544 0.146
vertex -5.121 2.466 0.5
vertex -5.006 2.557 0.146
endloop
endfacet
facet normal -0.782990218176324 -0.49198536199534404 -0.38062674869549412
outer loop
vertex -5.121 2.466 0.5
vertex -5.901 3.708 0.5
vertex -5.006 2.557 0.146
endloop
endfacet
facet normal -0.78299021817632442 -0.491985361995345 -0.3806267486954924
outer loop
vertex -5.006 2.557 0.146
vertex -5.901 3.708 0.5
vertex -5.769 3.772 0.146
endloop
endfacet
facet normal -0.872836060909474 -0.30541854716688693 -0.38062674869549212
outer loop
vertex -5.901 3.708 0.5
vertex -6.386 5.092 0.5
vertex -5.769 3.772 0.146
endloop
endfacet
facet normal -0.87283606090947352 -0.30541854716688643 -0.38062674869549318
outer loop
vertex -5.769 3.772 0.146
vertex -6.386 5.092 0.5
vertex -6.243 5.125 0.146
endloop
endfacet
facet normal -0.91891425890263612 -0.10353677106669151 -0.38062674869549334
outer loop
vertex -6.386 5.092 0.5
vertex -6.55 6.55 0.5
vertex -6.243 5.125 0.146
endloop
endfacet
facet normal -0.91891425890263634 -0.10353677106669157 -0.38062674869549323
outer loop
vertex -6.243 5.125 0.146
vertex -6.55 6.55 0.5
vertex -6.404 6.55 0.146
endloop
endfacet
facet normal -0.91891425890263645 0.10353677106669142 -0.38062674869549323
outer loop
vertex -6.55 6.55 0.5
vertex -6.386 8.008 0.5
vertex -6.404 6.55 0.146
endloop
endfacet
facet normal -0.91891425890263612 0.10353677106669149 -0.38062674869549357
outer loop
vertex -6.404 6.55 0.146
vertex -6.386 8.008 0.5
vertex -6.243 7.975 0.146
endloop
endfacet
facet normal -0.87283606090947308 0.30541854716688677 -0.3806267486954939
outer loop
vertex -6.386 8.008 0.5
vertex -5.901 9.392 0.5
vertex -6.243 7.975 0.146
endloop
endfacet
facet normal -0.87283606090947252 0.30541854716688693 -0.3806267486954954
outer loop
vertex -6.243 7.975 0.146
vertex -5.901 9.392 0.5
vertex -5.769 9.328 0.146
endloop
endfacet
facet normal -0.78299021817632264 0.49198536199534465 -0.38062674869549612
outer loop
vertex -5.901 9.392 0.5
vertex -5.121 10.634 0.5
vertex -5.769 9.328 0.146
endloop
endfacet
facet normal -0.78299021817632408 0.49198536199534459 -0.38062674869549346
outer loop
vertex -5.769 9.328 0.146
vertex -5.121 10.634 0.5
vertex -5.006 10.543 0.146
endloop
endfacet
facet normal -0.65388197642139412 0.65388197642139412 -0.38062674869549379
outer loop
vertex -5.121 10.634 0.5
vertex -4.084 11.671 0.5
vertex -5.006 10.543 0.146
endloop
endfacet
facet normal -0.65388197642139456 0.65388197642139434 -0.38062674869549296
outer loop
vertex -5.006 10.543 0.146
vertex -4.084 11.671 0.5
vertex -3.993 11.556 0.146
endloop
endfacet
facet normal -0.49198536199534437 0.78299021817632419 -0.38062674869549296
outer loop
vertex -4.084 11.671 0.5
vertex -2.842 12.451 0.5
vertex -3.993 11.556 0.146
endloop
endfacet
facet normal -0.49198536199534482 0.78299021817632453 -0.3806267486954924
outer loop
vertex -3.993 11.556 0.146
vertex -2.842 12.451 0.5
vertex -2.778 12.319 0.146
endloop
endfacet
facet normal -0.30541854716688721 0.87283606090947374 -0.38062674869549207
outer loop
vertex -2.842 12.451 0.5
vertex -1.458 12.936 0.5
vertex -2.778 12.319 0.146
endloop
endfacet
facet normal -0.30541854716688666 0.87283606090947341 -0.38062674869549323
outer loop
vertex -2.778 12.319 0.146
vertex -1.458 12.936 0.5
vertex -1.425 12.793 0.146
endloop
endfacet
facet normal -0.10353677106669161 0.91891425890263634 -0.3806267486954934
outer loop
vertex -1.458 12.936 0.5
vertex 0 13.1 0.5
vertex -1.425 12.793 0.146
endloop
endfacet
facet normal -0.10353677106669232 0.91891425890263712 -0.38062674869549123
outer loop
vertex -1.425 12.793 0.146
vertex 0 13.1 0.5
vertex 0 12.954 0.146
endloop
endfacet
facet normal -0.043078041318553327 -0.38232819128305057 -0.92302190467311673
outer loop
vertex 0 0.5 0
vertex -1.425 0.307 0.146
vertex -1.346 0.652 0
endloop
endfacet
facet normal -0.12707401108571256 -0.36315665930862406 -0.92302190467311673
outer loop
vertex -1.425 0.307 0.146
vertex -2.778 0.781 0.146
vertex -1.346 0.652 0
endloop
endfacet
facet normal -0.12707401108571256 -0.3631566593086244 -0.92302190467311662
outer loop
vertex -1.346 0.652 0
vertex -2.778 0.781 0.146
vertex -2.625 1.099 0
endloop
endfacet
facet normal -0.20469795932217363 -0.3257749360263153 -0.92302190467311662
outer loop
vertex -2.778 0.781 0.146
vertex -3.993 1.544 0.146
vertex -2.625 1.099 0
endloop
endfacet
facet normal -0.20469795932217361 -0.32577493602631519 -0.92302190467311662
outer loop
vertex -2.625 1.099 0
vertex -3.993 1.544 0.146
vertex -3.772 1.82 0
endloop
endfacet
facet normal -0.27205749713398103 -0.27205749713398053 -0.92302190467311673
outer loop
vertex -3.993 1.544 0.146
vertex -5.006 2.557 0.146
vertex -3.772 1.82 0
endloop
endfacet
facet normal -0.27205749713398136 -0.27205749713398109 -0.92302190467311629
outer loop
vertex -3.772 1.82 0
vertex -5.006 2.557 0.146
vertex -4.73 2.778 0
endloop
endfacet
facet normal -0.3257749360263158 -0.20469795932217394 -0.9230219046731164
outer loop
vertex -5.006 2.557 0.146
vertex -5.769 3.772 0.146
vertex -4.73 2.778 0
endloop
endfacet
facet normal -0.32577493602631585 -0.204697959322174 -0.9230219046731164
outer loop
vertex -4.73 2.778 0
vertex -5.769 3.772 0.146
vertex -5.451 3.925 0
endloop
endfacet
facet normal -0.36315665930862512 -0.12707401108571267 -0.92302190467311629
outer loop
vertex -5.769 3.772 0.146
vertex -6.243 5.125 0.146
vertex -5.451 3.925 0
endloop
endfacet
facet normal -0.36315665930862451 -0.12707401108571226 -0.92302190467311662
outer loop
vertex -5.451 3.925 0
vertex -6.243 5.125 0.146
vertex -5.898 5.204 0
endloop
endfacet
facet normal -0.38232819128305096 -0.043078041318553258 -0.92302190467311662
outer loop
vertex -6.243 5.125 0.146
vertex -6.404 6.55 0.146
vertex -5.898 5.204 0
endloop
endfacet
facet normal -0.38232819128305123 -0.043078041318553369 -0.92302190467311651
outer loop
vertex -5.898 5.204 0
vertex -6.404 6.55 0.146
vertex -6.05 6.55 0
endloop
endfacet
facet normal -0.38232819128305118 0.043078041318553258 -0.9230219046731164
outer loop
vertex -6.404 6.55 0.146
vertex -6.243 7.975 0.146
vertex -6.05 6.55 0
endloop
endfacet
facet normal -0.38232819128305084 0.0430780413185533 -0.92302190467311651
outer loop
vertex -6.05 6.55 0
vertex -6.243 7.975 0.146
vertex -5.898 7.896 0
endloop
endfacet
facet normal -0.3631566593086244 0.12707401108571278 -0.92302190467311662
outer loop
vertex -6.243 7.975 0.146
vertex -5.769 9.328 0.146
vertex -5.898 7.896 0
endloop
endfacet
facet normal -0.363156659308625 0.12707401108571281 -0.92302190467311629
outer loop
vertex -5.898 7.896 0
vertex -5.769 9.328 0.146
vertex -5.451 9.175 0
endloop
endfacet
facet normal -0.32577493602631596 0.20469795932217397 -0.92302190467311629
outer loop
vertex -5.769 9.328 0.146
vertex -5.006 10.543 0.146
vertex -5.451 9.175 0
endloop
endfacet
facet normal -0.32577493602631491 0.20469795932217366 -0.92302190467311662
outer loop
vertex -5.451 9.175 0
vertex -5.006 10.543 0.146
vertex -4.73 10.322 0
endloop
endfacet
facet normal -0.27205749713398047 0.27205749713398042 -0.923021904673117
outer loop
vertex -5.006 10.543 0.146
vertex -3.993 11.556 0.146
vertex -4.73 10.322 0
endloop
endfacet
facet normal -0.2720574971339817 0.27205749713398109 -0.9230219046731164
outer loop
vertex -4.73 10.322 0
vertex -3.993 11.556 0.146
vertex -3.772 11.28 0
endloop
endfacet
facet normal -0.20469795932217383 0.32577493602631585 -0.92302190467311629
outer loop
vertex -3.993 11.556 0.146
vertex -2.778 12.319 0.146
vertex -3.772 11.28 0
endloop
endfacet
facet normal -0.20469795932217369 0.32577493602631574 -0.92302190467311629
outer loop
vertex -3.772 11.28 0
vertex -2.778 12.319 0.146
vertex -2.625 12.001 0
endloop
endfacet
facet normal -0.12707401108571273 0.3631566593086249 -0.9230219046731164
outer loop
vertex -2.778 12.319 0.146
vertex -1.425 12.793 0.146
vertex -2.625 12.001 0
endloop
endfacet
facet normal -0.12707401108571287 0.36315665930862512 -0.92302190467311629
outer loop
vertex -2.625 12.001 0
vertex -1.425 12.793 0.146
vertex -1.346 12.448 0
endloop
endfacet
facet normal -0.043078041318553591 0.38232819128305157 -0.92302190467311618
outer loop
vertex -1.425 12.793 0.146
vertex 0 12.954 0.146
vertex -1.346 12.448 0
endloop
endfacet
facet normal -0.043078041318553049 0.38232819128305029 -0.92302190467311662
outer loop
vertex -1.346 12.448 0
vertex 0 12.954 0.146
vertex 0 12.6 0
endloop
endfacet
facet normal -0.11196447610330765 0.9937122098932426 0
outer loop
vertex 0 13.1 1
vertex 0 13.1 0.5
vertex -1.458 12.936 0.5
endloop
endfacet
facet normal -0.21140991783105975 0.92624736981388689 0.31204431825547047
outer loop
vertex 0 13.1 1
vertex -1.458 12.936 0.5
vertex -2.842 12.451 1
endloop
endfacet
facet normal -0.33027906195516726 0.94388333030836746 0
outer loop
vertex -1.458 12.936 0.5
vertex -2.842 12.451 0.5
vertex -2.842 12.451 1
endloop
endfacet
facet normal -0.53203207651533746 0.84672419922828357 0
outer loop
vertex -2.842 12.451 0.5
vertex -4.084 11.671 0.5
vertex -2.842 12.451 1
endloop
endfacet
facet normal -0.59235742649424683 0.74279271854373508 0.3120443182554688
outer loop
vertex -2.842 12.451 1
vertex -4.084 11.671 0.5
vertex -5.121 10.634 1
endloop
endfacet
facet normal -0.70710678118654757 0.70710678118654757 0
outer loop
vertex -4.084 11.671 0.5
vertex -5.121 10.634 0.5
vertex -5.121 10.634 1
endloop
endfacet
facet normal -0.8467241992282839 0.53203207651533713 0
outer loop
vertex -5.121 10.634 0.5
vertex -5.901 9.392 0.5
vertex -5.121 10.634 1
endloop
endfacet
facet normal -0.855981282053163 0.41221885961113153 0.31204431825547108
outer loop
vertex -5.121 10.634 1
vertex -5.901 9.392 0.5
vertex -6.386 8.008 1
endloop
endfacet
facet normal -0.9438833303083678 0.33027906195516682 0
outer loop
vertex -5.901 9.392 0.5
vertex -6.386 8.008 0.5
vertex -6.386 8.008 1
endloop
endfacet
facet normal -0.9937122098932426 0.11196447610330768 0
outer loop
vertex -6.386 8.008 0.5
vertex -6.55 6.55 0.5
vertex -6.386 8.008 1
endloop
endfacet
facet normal -0.95006754677995342 -2.89475978355722E-16 0.3120443182554698
outer loop
vertex -6.386 8.008 1
vertex -6.55 6.55 0.5
vertex -6.386 5.092 1
endloop
endfacet
facet normal -0.9937122098932426 -0.11196447610330801 0
outer loop
vertex -6.55 6.55 0.5
vertex -6.386 5.092 0.5
vertex -6.386 5.092 1
endloop
endfacet
facet normal -0.90096886790241915 -0.43388373911755818 0
outer loop
vertex -6.386 5.092 1
vertex -6.386 5.092 0.5
vertex -5.121 2.466 1
endloop
endfacet
facet normal -0.7903952597676388 -0.27657126319264547 0.54661107719554236
outer loop
vertex -6.386 5.092 0.5
vertex -5.901 3.708 0.5
vertex -5.121 2.466 1
endloop
endfacet
facet normal -0.846724199228284 -0.53203207651533668 0
outer loop
vertex -5.901 3.708 0.5
vertex -5.121 2.466 0.5
vertex -5.121 2.466 1
endloop
endfacet
facet normal -0.62348980185873337 -0.78183148246802991 0
outer loop
vertex -5.121 2.466 1
vertex -5.121 2.466 0.5
vertex -2.842 0.649 1
endloop
endfacet
facet normal -0.59212174858179745 -0.59212174858179822 0.54661107719554014
outer loop
vertex -5.121 2.466 0.5
vertex -4.084 1.429 0.5
vertex -2.842 0.649 1
endloop
endfacet
facet normal -0.53203207651533668 -0.84672419922828412 0
outer loop
vertex -4.084 1.429 0.5
vertex -2.842 0.649 0.5
vertex -2.842 0.649 1
endloop
endfacet
facet normal -0.22252093395631423 -0.97492791218182362 0
outer loop
vertex -2.842 0.649 1
vertex -2.842 0.649 0.5
vertex 0 0 1
endloop
endfacet
facet normal -0.27657126319264552 -0.79039525976763914 0.54661107719554169
outer loop
vertex -2.842 0.649 0.5
vertex -1.458 0.164 0.5
vertex 0 0 1
endloop
endfacet
facet normal -0.11196447610330763 -0.99371220989324271 0
outer loop
vertex 0 0 1
vertex -1.458 0.164 0.5
vertex 0 0 0.5
endloop
endfacet
facet normal 3.2162857446782489E-16 -1 0
outer loop
vertex 16.1 0 0.5
vertex 16.1 0 1
vertex 0 0 0.5
endloop
endfacet
facet normal 3.2162857446782489E-16 -1 0
outer loop
vertex 16.1 0 1
vertex 0 0 1
vertex 0 0 0.5
endloop
endfacet
facet normal 0.44551653559203352 -0.709035504612568 0.54661107719554436
outer loop
vertex 20.184 1.429 0.5
vertex 21.221 2.466 1
vertex 18.942 0.649 0.5
endloop
endfacet
facet normal 0.62348980185873393 -0.78183148246802925 0
outer loop
vertex 21.221 2.466 1
vertex 18.942 0.649 1
vertex 18.942 0.649 0.5
endloop
endfacet
facet normal 0.33027906195516754 -0.94388333030836735 0
outer loop
vertex 18.942 0.649 0.5
vertex 18.942 0.649 1
vertex 17.558 0.164 0.5
endloop
endfacet
facet normal 0.21140991783105975 -0.92624736981388667 0.3120443182554708
outer loop
vertex 18.942 0.649 1
vertex 16.1 0 1
vertex 17.558 0.164 0.5
endloop
endfacet
facet normal 0.11196447610330763 -0.99371220989324271 0
outer loop
vertex 17.558 0.164 0.5
vertex 16.1 0 1
vertex 16.1 0 0.5
endloop
endfacet
facet normal 0.70710678118654891 -0.70710678118654613 0
outer loop
vertex 20.184 1.429 0.5
vertex 21.221 2.466 0.5
vertex 21.221 2.466 1
endloop
endfacet
facet normal 0.84672419922828324 -0.53203207651533779 0
outer loop
vertex 21.221 2.466 0.5
vertex 22.001 3.708 0.5
vertex 21.221 2.466 1
endloop
endfacet
facet normal 0.85598128205316237 -0.4122188596111318 0.31204431825547269
outer loop
vertex 21.221 2.466 1
vertex 22.001 3.708 0.5
vertex 22.486 5.092 1
endloop
endfacet
facet normal 0.94388333030836769 -0.33027906195516671 0
outer loop
vertex 22.001 3.708 0.5
vertex 22.486 5.092 0.5
vertex 22.486 5.092 1
endloop
endfacet
facet normal 0.99371220989324294 -0.11196447610330543 0
outer loop
vertex 22.486 5.092 0.5
vertex 22.65 6.55 0.5
vertex 22.486 5.092 1
endloop
endfacet
facet normal 0.95006754677995564 0 0.31204431825546292
outer loop
vertex 22.486 5.092 1
vertex 22.65 6.55 0.5
vertex 22.486 8.008 1
endloop
endfacet
facet normal 0.99371220989324294 0.11196447610330501 0
outer loop
vertex 22.65 6.55 0.5
vertex 22.486 8.008 0.5
vertex 22.486 8.008 1
endloop
endfacet
facet normal 0.94388333030836724 0.33027906195516832 0
outer loop
vertex 22.486 8.008 0.5
vertex 22.001 9.392 0.5
vertex 22.486 8.008 1
endloop
endfacet
facet normal 0.85598128205316326 0.41221885961113275 0.31204431825546852
outer loop
vertex 22.486 8.008 1
vertex 22.001 9.392 0.5
vertex 21.221 10.634 1
endloop
endfacet
facet normal 0.84672419922828412 0.53203207651533668 0
outer loop
vertex 22.001 9.392 0.5
vertex 21.221 10.634 0.5
vertex 21.221 10.634 1
endloop
endfacet
facet normal 0.70710678118654813 0.70710678118654691 0
outer loop
vertex 21.221 10.634 0.5
vertex 20.184 11.671 0.5
vertex 21.221 10.634 1
endloop
endfacet
facet normal 0.592357426494245 0.74279271854373485 0.31204431825547296
outer loop
vertex 21.221 10.634 1
vertex 20.184 11.671 0.5
vertex 18.942 12.451 1
endloop
endfacet
facet normal 0.11196447610330755 0.99371220989324271 0
outer loop
vertex 16.1 13.1 0.5
vertex 16.1 13.1 1
vertex 17.558 12.936 0.5
endloop
endfacet
facet normal 0.21140991783105989 0.92624736981388645 0.31204431825547163
outer loop
vertex 16.1 13.1 1
vertex 18.942 12.451 1
vertex 17.558 12.936 0.5
endloop
endfacet
facet normal 0.33027906195516832 0.94388333030836724 0
outer loop
vertex 17.558 12.936 0.5
vertex 18.942 12.451 1
vertex 18.942 12.451 0.5
endloop
endfacet
facet normal 0.53203207651533513 0.8467241992282849 0
outer loop
vertex 18.942 12.451 1
vertex 20.184 11.671 0.5
vertex 18.942 12.451 0.5
endloop
endfacet
facet normal 2.9863518894816313E-16 -0.92387953251128763 -0.38268343236508762
outer loop
vertex 16.1 0 0.5
vertex 0 0 0.5
vertex 16.1 0.146 0.146
endloop
endfacet
facet normal 2.3763322709601175E-16 -0.92387953251128652 -0.38268343236509
outer loop
vertex 0 0 0.5
vertex 0 0.146 0.146
vertex 16.1 0.146 0.146
endloop
endfacet
facet normal 1.8813195226475222E-16 -0.38268343236509245 -0.92387953251128563
outer loop
vertex 16.1 0.146 0.146
vertex 0 0.146 0.146
vertex 16.1 0.5 0
endloop
endfacet
facet normal 1.2388462076095442E-16 -0.38268343236508989 -0.92387953251128674
outer loop
vertex 0 0.146 0.146
vertex 0 0.5 0
vertex 16.1 0.5 0
endloop
endfacet
facet normal -0.37975900726502765 -0.1233911812822629 -0.91681934577257274
outer loop
vertex -1.75 6.55 0
vertex -2.275 7.077 0.146
vertex -1.989 7.285 0
endloop
endfacet
facet normal -0.2347039740237051 -0.32304230650896432 -0.91681934577257262
outer loop
vertex -2.275 7.077 0.146
vertex -2.723 7.403 0.146
vertex -1.989 7.285 0
endloop
endfacet
facet normal -0.23470397402370513 -0.32304230650896393 -0.91681934577257274
outer loop
vertex -1.989 7.285 0
vertex -2.723 7.403 0.146
vertex -2.614 7.739 0
endloop
endfacet
facet normal 0 -0.39930225045340217 -0.91681934577257307
outer loop
vertex -2.723 7.403 0.146
vertex -3.277 7.403 0.146
vertex -2.614 7.739 0
endloop
endfacet
facet normal 0 -0.39930225045340206 -0.91681934577257285
outer loop
vertex -2.614 7.739 0
vertex -3.277 7.403 0.146
vertex -3.386 7.739 0
endloop
endfacet
facet normal 0.23470397402370491 -0.32304230650896404 -0.91681934577257285
outer loop
vertex -3.277 7.403 0.146
vertex -3.725 7.077 0.146
vertex -3.386 7.739 0
endloop
endfacet
facet normal 0.23470397402370566 -0.32304230650896432 -0.91681934577257262
outer loop
vertex -3.386 7.739 0
vertex -3.725 7.077 0.146
vertex -4.011 7.285 0
endloop
endfacet
facet normal 0.37975900726502837 -0.12339118128226285 -0.91681934577257262
outer loop
vertex -3.725 7.077 0.146
vertex -3.896 6.55 0.146
vertex -4.011 7.285 0
endloop
endfacet
facet normal 0.37975900726502787 -0.12339118128226297 -0.91681934577257274
outer loop
vertex -4.011 7.285 0
vertex -3.896 6.55 0.146
vertex -4.25 6.55 0
endloop
endfacet
facet normal 0.37975900726502781 0.12339118128226267 -0.91681934577257285
outer loop
vertex -3.896 6.55 0.146
vertex -3.725 6.023 0.146
vertex -4.25 6.55 0
endloop
endfacet
facet normal 0.37975900726502804 0.12339118128226288 -0.91681934577257262
outer loop
vertex -4.25 6.55 0
vertex -3.725 6.023 0.146
vertex -4.011 5.815 0
endloop
endfacet
facet normal 0.2347039740237053 0.32304230650896365 -0.916819345772573
outer loop
vertex -3.725 6.023 0.146
vertex -3.277 5.697 0.146
vertex -4.011 5.815 0
endloop
endfacet
facet normal 0.23470397402370527 0.32304230650896354 -0.916819345772573
outer loop
vertex -4.011 5.815 0
vertex -3.277 5.697 0.146
vertex -3.386 5.361 0
endloop
endfacet
facet normal 0 0.39930225045340217 -0.91681934577257307
outer loop
vertex -3.277 5.697 0.146
vertex -2.723 5.697 0.146
vertex -3.386 5.361 0
endloop
endfacet
facet normal 0 0.39930225045340206 -0.91681934577257285
outer loop
vertex -3.386 5.361 0
vertex -2.723 5.697 0.146
vertex -2.614 5.361 0
endloop
endfacet
facet normal -0.23470397402370508 0.32304230650896426 -0.91681934577257285
outer loop
vertex -2.723 5.697 0.146
vertex -2.275 6.023 0.146
vertex -2.614 5.361 0
endloop
endfacet
facet normal -0.23470397402370524 0.32304230650896437 -0.91681934577257285
outer loop
vertex -2.614 5.361 0
vertex -2.275 6.023 0.146
vertex -1.989 5.815 0
endloop
endfacet
facet normal -0.3797590072650277 0.12339118128226274 -0.91681934577257274
outer loop
vertex -2.275 6.023 0.146
vertex -2.104 6.55 0.146
vertex -1.989 5.815 0
endloop
endfacet
facet normal -0.37975900726502765 0.12339118128226276 -0.91681934577257285
outer loop
vertex -1.989 5.815 0
vertex -2.104 6.55 0.146
vertex -1.75 6.55 0
endloop
endfacet
facet normal -0.37975900726502759 -0.12339118128226291 -0.91681934577257274
outer loop
vertex -2.104 6.55 0.146
vertex -2.275 7.077 0.146
vertex -1.75 6.55 0
endloop
endfacet
facet normal -0.88487062873992872 -0.28751189589559867 -0.36652541536968697
outer loop
vertex -2.104 6.55 0.146
vertex -2.393 6.991 0.5
vertex -2.275 7.077 0.146
endloop
endfacet
facet normal -0.54688012420776511 -0.75271591562459794 -0.36652541536968819
outer loop
vertex -2.393 6.991 0.5
vertex -2.768 7.263 0.5
vertex -2.275 7.077 0.146
endloop
endfacet
facet normal -0.54688012420776477 -0.75271591562459861 -0.3665254153696873
outer loop
vertex -2.275 7.077 0.146
vertex -2.768 7.263 0.5
vertex -2.723 7.403 0.146
endloop
endfacet
facet normal 0 -0.93040803945799933 -0.36652541536968752
outer loop
vertex -2.768 7.263 0.5
vertex -3.232 7.263 0.5
vertex -2.723 7.403 0.146
endloop
endfacet
facet normal 0 -0.93040803945799933 -0.36652541536968758
outer loop
vertex -2.723 7.403 0.146
vertex -3.232 7.263 0.5
vertex -3.277 7.403 0.146
endloop
endfacet
facet normal 0.54688012420776577 -0.75271591562459794 -0.36652541536968719
outer loop
vertex -3.232 7.263 0.5
vertex -3.607 6.991 0.5
vertex -3.277 7.403 0.146
endloop
endfacet
facet normal 0.54688012420776455 -0.75271591562459816 -0.36652541536968869
outer loop
vertex -3.277 7.403 0.146
vertex -3.607 6.991 0.5
vertex -3.725 7.077 0.146
endloop
endfacet
facet normal 0.88487062873992817 -0.28751189589559917 -0.366525415369688
outer loop
vertex -3.607 6.991 0.5
vertex -3.75 6.55 0.5
vertex -3.725 7.077 0.146
endloop
endfacet
facet normal 0.88487062873992917 -0.28751189589559811 -0.3665254153696863
outer loop
vertex -3.725 7.077 0.146
vertex -3.75 6.55 0.5
vertex -3.896 6.55 0.146
endloop
endfacet
facet normal 0.88487062873992894 0.28751189589559883 -0.36652541536968619
outer loop
vertex -3.75 6.55 0.5
vertex -3.607 6.109 0.5
vertex -3.896 6.55 0.146
endloop
endfacet
facet normal 0.88487062873992883 0.287511895895598 -0.36652541536968725
outer loop
vertex -3.896 6.55 0.146
vertex -3.607 6.109 0.5
vertex -3.725 6.023 0.146
endloop
endfacet
facet normal 0.54688012420776577 0.75271591562459794 -0.36652541536968714
outer loop
vertex -3.607 6.109 0.5
vertex -3.232 5.837 0.5
vertex -3.725 6.023 0.146
endloop
endfacet
facet normal 0.54688012420776588 0.75271591562459794 -0.36652541536968725
outer loop
vertex -3.725 6.023 0.146
vertex -3.232 5.837 0.5
vertex -3.277 5.697 0.146
endloop
endfacet
facet normal 0 0.93040803945799933 -0.36652541536968752
outer loop
vertex -3.232 5.837 0.5
vertex -2.768 5.837 0.5
vertex -3.277 5.697 0.146
endloop
endfacet
facet normal 0 0.93040803945799933 -0.36652541536968758
outer loop
vertex -3.277 5.697 0.146
vertex -2.768 5.837 0.5
vertex -2.723 5.697 0.146
endloop
endfacet
facet normal -0.54688012420776522 0.75271591562459816 -0.36652541536968725
outer loop
vertex -2.768 5.837 0.5
vertex -2.393 6.109 0.5
vertex -2.723 5.697 0.146
endloop
endfacet
facet normal -0.54688012420776466 0.75271591562459839 -0.36652541536968813
outer loop
vertex -2.723 5.697 0.146
vertex -2.393 6.109 0.5
vertex -2.275 6.023 0.146
endloop
endfacet
facet normal -0.88487062873992894 0.28751189589559795 -0.3665254153696868
outer loop
vertex -2.393 6.109 0.5
vertex -2.25 6.55 0.5
vertex -2.275 6.023 0.146
endloop
endfacet
facet normal -0.88487062873992883 0.28751189589559822 -0.36652541536968719
outer loop
vertex -2.275 6.023 0.146
vertex -2.25 6.55 0.5
vertex -2.104 6.55 0.146
endloop
endfacet
facet normal -0.88487062873992872 -0.28751189589559845 -0.36652541536968719
outer loop
vertex -2.25 6.55 0.5
vertex -2.393 6.991 0.5
vertex -2.104 6.55 0.146
endloop
endfacet
facet normal 0.77773284278787 -0.56505598571189541 -0.27539672884814076
outer loop
vertex -3.75 6.55 1
vertex -3.607 6.991 0.5
vertex -3.232 7.263 1
endloop
endfacet
facet normal 0.58778525229247347 -0.80901699437494734 0
outer loop
vertex -3.607 6.991 0.5
vertex -3.232 7.263 0.5
vertex -3.232 7.263 1
endloop
endfacet
facet normal -0.30901699437494728 -0.95105651629515353 0
outer loop
vertex -3.232 7.263 1
vertex -3.232 7.263 0.5
vertex -2.393 6.991 1
endloop
endfacet
facet normal -1.1460451476636179E-16 -0.87809765213357871 -0.47848146601252628
outer loop
vertex -3.232 7.263 0.5
vertex -2.768 7.263 0.5
vertex -2.393 6.991 1
endloop
endfacet
facet normal -0.587785252292473 -0.80901699437494767 0
outer loop
vertex -2.768 7.263 0.5
vertex -2.393 6.991 0.5
vertex -2.393 6.991 1
endloop
endfacet
facet normal -0.95105651629515364 -0.3090169943749474 0
outer loop
vertex -2.393 6.991 1
vertex -2.393 6.991 0.5
vertex -2.25 6.55 1
endloop
endfacet
facet normal -0.95105651629515342 -0.30901699437494734 0
outer loop
vertex -2.393 6.991 0.5
vertex -2.25 6.55 0.5
vertex -2.25 6.55 1
endloop
endfacet
facet normal -0.95105651629515386 0.30901699437494684 0
outer loop
vertex -2.25 6.55 1
vertex -2.25 6.55 0.5
vertex -2.393 6.109 1
endloop
endfacet
facet normal -0.95105651629515375 0.30901699437494684 0
outer loop
vertex -2.25 6.55 0.5
vertex -2.393 6.109 0.5
vertex -2.393 6.109 1
endloop
endfacet
facet normal -0.587785252292473 0.80901699437494767 0
outer loop
vertex -2.393 6.109 0.5
vertex -2.768 5.837 0.5
vertex -2.393 6.109 1
endloop
endfacet
facet normal -0.29706751177788765 0.91427979042842111 -0.27539672884814137
outer loop
vertex -2.393 6.109 1
vertex -2.768 5.837 0.5
vertex -3.232 5.837 1
endloop
endfacet
facet normal 0 0.99999999999999989 0
outer loop
vertex -2.768 5.837 0.5
vertex -3.232 5.837 0.5
vertex -3.232 5.837 1
endloop
endfacet
facet normal 0.58778525229247347 0.80901699437494734 0
outer loop
vertex -3.232 5.837 0.5
vertex -3.607 6.109 0.5
vertex -3.232 5.837 1
endloop
endfacet
facet normal 0.77773284278787036 0.565055985711895 -0.27539672884814115
outer loop
vertex -3.232 5.837 1
vertex -3.607 6.109 0.5
vertex -3.75 6.55 1
endloop
endfacet
facet normal 0.95105651629515342 0.30901699437494767 0
outer loop
vertex -3.607 6.109 0.5
vertex -3.75 6.55 0.5
vertex -3.75 6.55 1
endloop
endfacet
facet normal 0.9510565162951532 -0.30901699437494823 0
outer loop
vertex -3.75 6.55 1
vertex -3.75 6.55 0.5
vertex -3.607 6.991 0.5
endloop
endfacet
facet normal 0 0 0.99999999999999989
outer loop
vertex 21.221 2.466 1
vertex 19.707 6.109 1
vertex 18.868 5.837 1
endloop
endfacet
facet normal 0 0 1
outer loop
vertex -2.393 6.109 1
vertex -1 2.1 1
vertex -2.25 6.55 1
endloop
endfacet
facet normal 0 0 1
outer loop
vertex -1 2.1 1
vertex -1 11 1
vertex -2.25 6.55 1
endloop
endfacet
facet normal 0 0 1
outer loop
vertex -2.25 6.55 1
vertex -1 11 1
vertex -2.393 6.991 1
endloop
endfacet
facet normal 0 0 1
outer loop
vertex 18.942 0.649 1
vertex 17.1 2.1 1
vertex 17 2 1
endloop
endfacet
facet normal 0 0 0.99999999999999989
outer loop
vertex -6.386 8.008 1
vertex -6.386 5.092 1
vertex -3.75 6.55 1
endloop
endfacet
facet normal 0 0 1
outer loop
vertex -6.386 5.092 1
vertex -5.121 2.466 1
vertex -3.75 6.55 1
endloop
endfacet
facet normal 0 0 1
outer loop
vertex -3.75 6.55 1
vertex -5.121 2.466 1
vertex -3.232 5.837 1
endloop
endfacet
facet normal 0 0 0.99999999999999989
outer loop
vertex -5.121 2.466 1
vertex -2.842 0.649 1
vertex -3.232 5.837 1
endloop
endfacet
facet normal 0 0 1
outer loop
vertex 18.868 7.263 1
vertex 19.707 6.991 1
vertex 21.221 10.634 1
endloop
endfacet
facet normal 0 0 1
outer loop
vertex -2.393 6.109 1
vertex -3.232 5.837 1
vertex -1 2.1 1
endloop
endfacet
facet normal 0 0 1
outer loop
vertex -3.232 5.837 1
vertex -2.842 0.649 1
vertex -1 2.1 1
endloop
endfacet
facet normal 0 0 1
outer loop
vertex -1 2.1 1
vertex -2.842 0.649 1
vertex -0.9 2 1
endloop
endfacet
facet normal 0 0 1
outer loop
vertex -2.842 0.649 1
vertex 0 0 1
vertex -0.9 2 1
endloop
endfacet
facet normal 0 0 1
outer loop
vertex -0.9 2 1
vertex 0 0 1
vertex 17 2 1
endloop
endfacet
facet normal 0 0 1
outer loop
vertex 0 0 1
vertex 16.1 0 1
vertex 17 2 1
endloop
endfacet
facet normal 0 0 1
outer loop
vertex 17 2 1
vertex 16.1 0 1
vertex 18.942 0.649 1
endloop
endfacet
facet normal 0 0 1
outer loop
vertex 18.942 12.451 1
vertex 17 11.1 1
vertex 17.1 11 1
endloop
endfacet
facet normal 0 0 1
outer loop
vertex 19.707 6.109 1
vertex 21.221 2.466 1
vertex 19.85 6.55 1
endloop
endfacet
facet normal 0 0 1
outer loop
vertex 21.221 2.466 1
vertex 22.486 5.092 1
vertex 19.85 6.55 1
endloop
endfacet
facet normal 0 0 1
outer loop
vertex 19.85 6.55 1
vertex 22.486 5.092 1
vertex 19.707 6.991 1
endloop
endfacet
facet normal 0 0 1
outer loop
vertex 22.486 5.092 1
vertex 22.486 8.008 1
vertex 19.707 6.991 1
endloop
endfacet
facet normal 0 0 1
outer loop
vertex 19.707 6.991 1
vertex 22.486 8.008 1
vertex 21.221 10.634 1
endloop
endfacet
facet normal 0 0 1
outer loop
vertex 21.221 10.634 1
vertex 18.942 12.451 1
vertex 18.868 7.263 1
endloop
endfacet
facet normal 0 0 1
outer loop
vertex 18.942 12.451 1
vertex 17.1 11 1
vertex 18.868 7.263 1
endloop
endfacet
facet normal 0 0 0.99999999999999989
outer loop
vertex 18.868 7.263 1
vertex 17.1 11 1
vertex 18.35 6.55 1
endloop
endfacet
facet normal 0 0 1
outer loop
vertex 17.1 11 1
vertex 17.1 2.1 1
vertex 18.35 6.55 1
endloop
endfacet
facet normal 0 0 0.99999999999999989
outer loop
vertex 18.35 6.55 1
vertex 17.1 2.1 1
vertex 18.868 5.837 1
endloop
endfacet
facet normal 0 0 1
outer loop
vertex 17.1 2.1 1
vertex 18.942 0.649 1
vertex 18.868 5.837 1
endloop
endfacet
facet normal 0 0 1
outer loop
vertex 18.868 5.837 1
vertex 18.942 0.649 1
vertex 21.221 2.466 1
endloop
endfacet
facet normal 0 0 1
outer loop
vertex -6.386 8.008 1
vertex -3.75 6.55 1
vertex -5.121 10.634 1
endloop
endfacet
facet normal 0 0 1
outer loop
vertex -3.75 6.55 1
vertex -3.232 7.263 1
vertex -5.121 10.634 1
endloop
endfacet
facet normal 0 0 1
outer loop
vertex -5.121 10.634 1
vertex -3.232 7.263 1
vertex -2.842 12.451 1
endloop
endfacet
facet normal 0 0 1
outer loop
vertex 18.942 12.451 1
vertex 16.1 13.1 1
vertex 17 11.1 1
endloop
endfacet
facet normal 0 0 1
outer loop
vertex 16.1 13.1 1
vertex 0 13.1 1
vertex 17 11.1 1
endloop
endfacet
facet normal 0 0 1
outer loop
vertex 17 11.1 1
vertex 0 13.1 1
vertex -0.9 11.1 1
endloop
endfacet
facet normal 0 0 1
outer loop
vertex 0 13.1 1
vertex -2.842 12.451 1
vertex -0.9 11.1 1
endloop
endfacet
facet normal 0 0 0.99999999999999989
outer loop
vertex -0.9 11.1 1
vertex -2.842 12.451 1
vertex -1 11 1
endloop
endfacet
facet normal 0 0 1
outer loop
vertex -2.842 12.451 1
vertex -3.232 7.263 1
vertex -1 11 1
endloop
endfacet
facet normal 0 0 1
outer loop
vertex -1 11 1
vertex -3.232 7.263 1
vertex -2.393 6.991 1
endloop
endfacet
facet normal -1.984756245139944E-16 1 -1.1951306205412542E-31
outer loop
vertex 17 11.1 1
vertex -0.9 11.1 1
vertex 17 11.1 6.9
endloop
endfacet
facet normal -1.9847562451399443E-16 1 0
outer loop
vertex -0.9 11.1 1
vertex -0.9 11.1 6.9
vertex 17 11.1 6.9
endloop
endfacet
facet normal 2.4809453064249307E-16 -1 0
outer loop
vertex 17 2 6.9
vertex -0.9 2 6.9
vertex 17 2 1
endloop
endfacet
facet normal 2.4809453064249307E-16 -1 7.0027184797339139E-32
outer loop
vertex -0.9 2 6.9
vertex -0.9 2 1
vertex 17 2 1
endloop
endfacet
facet normal -0.70710678118654047 0.70710678118655457 3.9917604881790497E-17
outer loop
vertex -0.9 11.1 1
vertex -1 11 1
vertex -0.9 11.1 6.9
endloop
endfacet
facet normal -0.70710678118654013 0.7071067811865549 2.6611736587860317E-17
outer loop
vertex -1 11 1
vertex -1 11 6.9
vertex -0.9 11.1 6.9
endloop
endfacet
facet normal -0.70710678118654924 -0.707106781186546 -4.7271940296164335E-31
outer loop
vertex -0.9 2 6.9
vertex -1 2.1 6.9
vertex -0.9 2 1
endloop
endfacet
facet normal -0.707106781186549 -0.707106781186546 0
outer loop
vertex -1 2.1 6.9
vertex -1 2.1 1
vertex -0.9 2 1
endloop
endfacet
facet normal -7.0171729997040525E-17 0.70710678118655068 0.70710678118654435
outer loop
vertex 17 11 7
vertex 17 11.1 6.9
vertex -0.9 11 7
endloop
endfacet
facet normal -1.4034345999408231E-16 0.7071067811865569 0.707106781186538
outer loop
vertex 17 11.1 6.9
vertex -0.9 11.1 6.9
vertex -0.9 11 7
endloop
endfacet
facet normal 0.707106781186535 0.70710678118656 2.1289389270287341E-16
outer loop
vertex 17 11.1 6.9
vertex 17.1 11 6.9
vertex 17 11.1 1
endloop
endfacet
facet normal 0.70710678118654124 0.7071067811865539 0
outer loop
vertex 17.1 11 6.9
vertex 17.1 11 1
vertex 17 11.1 1
endloop
endfacet
facet normal 1.9297225749186144E-16 -0.70710678118655068 0.70710678118654435
outer loop
vertex 17 2 6.9
vertex 17 2.1 7
vertex -0.9 2 6.9
endloop
endfacet
facet normal 1.7542932499260092E-16 -0.707106781186549 0.70710678118654591
outer loop
vertex 17 2.1 7
vertex -0.9 2.1 7
vertex -0.9 2 6.9
endloop
endfacet
facet normal 0.7071067811865428 -0.70710678118655212 0
outer loop
vertex 17 2 1
vertex 17.1 2.1 1
vertex 17 2 6.9
endloop
endfacet
facet normal 0.70710678118654124 -0.70710678118655368 -5.3223473175721663E-17
outer loop
vertex 17.1 2.1 1
vertex 17.1 2.1 6.9
vertex 17 2 6.9
endloop
endfacet
facet normal -0.57735026918962185 0.577350269189636 0.57735026918961929
outer loop
vertex -0.9 11.1 6.9
vertex -1 11 6.9
vertex -0.9 11 7
endloop
endfacet
facet normal -0.70710678118654913 0 0.707106781186546
outer loop
vertex -0.9 11 7
vertex -1 11 6.9
vertex -0.9 10.1 7
endloop
endfacet
facet normal -0.70710678118654913 0 0.707106781186546
outer loop
vertex -1 11 6.9
vertex -1 10.1 6.9
vertex -0.9 10.1 7
endloop
endfacet
facet normal 0 1 0
outer loop
vertex -0.9 10.1 7
vertex -1 10.1 6.9
vertex -1 10.1 7
endloop
endfacet
facet normal -0.57735026918962629 -0.57735026918962384 0.57735026918962706
outer loop
vertex -1 2.1 6.9
vertex -0.9 2 6.9
vertex -0.9 2.1 7
endloop
endfacet
facet normal -0.70710678118654857 0 0.70710678118654624
outer loop
vertex -1 2.1 6.9
vertex -0.9 2.1 7
vertex -1 3 6.9
endloop
endfacet
facet normal -0.70710678118654913 -8.7227358815764742E-17 0.70710678118654591
outer loop
vertex -0.9 2.1 7
vertex -0.9 3 7
vertex -1 3 6.9
endloop
endfacet
facet normal 0 -1 0
outer loop
vertex -1 3 6.9
vertex -0.9 3 7
vertex -1 3 7
endloop
endfacet
facet normal 0.57735026918961374 0.57735026918963428 0.57735026918962906
outer loop
vertex 17 11.1 6.9
vertex 17 11 7
vertex 17.1 11 6.9
endloop
endfacet
facet normal 0.70710678118654435 0 0.70710678118655068
outer loop
vertex 17.1 11 6.9
vertex 17 11 7
vertex 17.1 10.1 6.9
endloop
endfacet
facet normal 0.70710678118654757 6.97818870526122E-16 0.70710678118654757
outer loop
vertex 17 11 7
vertex 17 10.1 7
vertex 17.1 10.1 6.9
endloop
endfacet
facet normal 0 1 0
outer loop
vertex 17.1 10.1 6.9
vertex 17 10.1 7
vertex 17.1 10.1 7
endloop
endfacet
facet normal 0.57735026918962062 -0.577350269189631 0.57735026918962573
outer loop
vertex 17 2.1 7
vertex 17 2 6.9
vertex 17.1 2.1 6.9
endloop
endfacet
facet normal 0.70710678118654446 0 0.70710678118655068
outer loop
vertex 17 2.1 7
vertex 17.1 2.1 6.9
vertex 17 3 7
endloop
endfacet
facet normal 0.70710678118654124 -6.9781887052617907E-16 0.70710678118655379
outer loop
vertex 17.1 2.1 6.9
vertex 17.1 3 6.9
vertex 17 3 7
endloop
endfacet
facet normal 0 -1 0
outer loop
vertex 17 3 7
vertex 17.1 3 6.9
vertex 17.1 3 7
endloop
endfacet
facet normal -0.99999999999999989 -2.4671622769447914E-16 3.7634678800852767E-16
outer loop
vertex -1 10.1 6.9
vertex -1 11 6.9
vertex -1 11 1
endloop
endfacet
facet normal -0.99999999999999989 -4.4408920985006222E-16 0
outer loop
vertex -1 3 7
vertex -1 3.5 7
vertex -1 3 6.9
endloop
endfacet
facet normal -0.99999999999999989 -4.44089209850063E-16 3.9443045261050415E-30
outer loop
vertex -1 3.5 7
vertex -1 3.5 6.9
vertex -1 3 6.9
endloop
endfacet
facet normal -1 0 0
outer loop
vertex -1 9.6 6.9
vertex -1 9.6 7
vertex -1 10.1 7
endloop
endfacet
facet normal -1 0 0
outer loop
vertex -1 10.1 7
vertex -1 10.1 6.9
vertex -1 9.6 6.9
endloop
endfacet
facet normal -1 0 4.1398146680938044E-16
outer loop
vertex -1 10.1 6.9
vertex -1 11 1
vertex -1 9.6 6.9
endloop
endfacet
facet normal -1 -1.0920226471722862E-16 3.8806906501207192E-16
outer loop
vertex -1 9.6 6.9
vertex -1 11 1
vertex -1 3.5 6.9
endloop
endfacet
facet normal -1 -1.2474416007024229E-16 3.6831241837688508E-16
outer loop
vertex -1 11 1
vertex -1 2.1 1
vertex -1 3.5 6.9
endloop
endfacet
facet normal -1 -4.44089209850063E-16 4.4408920985006331E-16
outer loop
vertex -1 3.5 6.9
vertex -1 2.1 1
vertex -1 3 6.9
endloop
endfacet
facet normal -1 0 3.7634678800852767E-16
outer loop
vertex -1 2.1 1
vertex -1 2.1 6.9
vertex -1 3 6.9
endloop
endfacet
facet normal -0.70710678118654868 -5.1478441268320626E-17 0.70710678118654635
outer loop
vertex -1 9.6 6.9
vertex -1 3.5 6.9
vertex -0.9 9.6 7
endloop
endfacet
facet normal -0.707106781186549 -3.8206655628831535E-17 0.707106781186546
outer loop
vertex -1 3.5 6.9
vertex -0.9 3.5 7
vertex -0.9 9.6 7
endloop
endfacet
facet normal 0 -0.99999999999999989 0
outer loop
vertex -0.9 9.6 7
vertex -1 9.6 7
vertex -1 9.6 6.9
endloop
endfacet
facet normal 0 1 0
outer loop
vertex -1 3.5 6.9
vertex -1 3.5 7
vertex -0.9 3.5 7
endloop
endfacet
facet normal 0 0 1
outer loop
vertex -1 3.5 7
vertex -1 3 7
vertex -0.9 3.5 7
endloop
endfacet
facet normal 0 0 0.99999999999999989
outer loop
vertex -1 3 7
vertex -0.9 3 7
vertex -0.9 3.5 7
endloop
endfacet
facet normal 0 0 1
outer loop
vertex 17 3 7
vertex 16.1 3.5 7
vertex 17 2.1 7
endloop
endfacet
facet normal -1.1033272294411492E-16 -7.0928179035502328E-17 1
outer loop
vertex 16.1 3.5 7
vertex 0 3.5 7
vertex 17 2.1 7
endloop
endfacet
facet normal -1.1033272294411492E-16 7.0928179035502328E-17 1
outer loop
vertex 16.1 9.6 7
vertex 17 11 7
vertex 0 9.6 7
endloop
endfacet
facet normal -9.9237812256997227E-17 -6.3795736450926928E-17 1
outer loop
vertex 17 11 7
vertex -0.9 11 7
vertex 0 9.6 7
endloop
endfacet
facet normal 0 0 1
outer loop
vertex 17.1 9.6 7
vertex 17.1 10.1 7
vertex 17 9.6 7
endloop
endfacet
facet normal 0 0 1
outer loop
vertex 17.1 10.1 7
vertex 17 10.1 7
vertex 17 9.6 7
endloop
endfacet
facet normal 0 0 1
outer loop
vertex -1 10.1 7
vertex -1 9.6 7
vertex -0.9 10.1 7
endloop
endfacet
facet normal 0 0 1
outer loop
vertex -1 9.6 7
vertex -0.9 9.6 7
vertex -0.9 10.1 7
endloop
endfacet
facet normal 0 0 0.99999999999999989
outer loop
vertex 17.1 3 7
vertex 17.1 3.5 7
vertex 17 3 7
endloop
endfacet
facet normal 0 0 0.99999999999999989
outer loop
vertex 17.1 3.5 7
vertex 17 3.5 7
vertex 17 3 7
endloop
endfacet
facet normal 0 0 0.99999999999999989
outer loop
vertex 17 3 7
vertex 17 3.5 7
vertex 16.1 3.5 7
endloop
endfacet
facet normal 0 0 1
outer loop
vertex 17 3.5 7
vertex 17 9.6 7
vertex 16.1 3.5 7
endloop
endfacet
facet normal 0 0 1
outer loop
vertex 16.1 3.5 7
vertex 17 9.6 7
vertex 16.1 9.6 7
endloop
endfacet
facet normal 0 0 1
outer loop
vertex 17 9.6 7
vertex 17 10.1 7
vertex 16.1 9.6 7
endloop
endfacet
facet normal 0 0 1
outer loop
vertex 16.1 9.6 7
vertex 17 10.1 7
vertex 17 11 7
endloop
endfacet
facet normal 0 0 1
outer loop
vertex -0.9 11 7
vertex -0.9 10.1 7
vertex 0 9.6 7
endloop
endfacet
facet normal 0 0 1
outer loop
vertex -0.9 10.1 7
vertex -0.9 9.6 7
vertex 0 9.6 7
endloop
endfacet
facet normal 0 0 1
outer loop
vertex 0 9.6 7
vertex -0.9 9.6 7
vertex 0 3.5 7
endloop
endfacet
facet normal 0 0 1
outer loop
vertex -0.9 9.6 7
vertex -0.9 3.5 7
vertex 0 3.5 7
endloop
endfacet
facet normal 3.7564805010525724E-30 1.268826313857367E-15 1
outer loop
vertex 0 3.5 7
vertex -0.9 3.5 7
vertex 17 2.1 7
endloop
endfacet
facet normal -9.9237812256997239E-17 0 1
outer loop
vertex -0.9 3.5 7
vertex -0.9 3 7
vertex 17 2.1 7
endloop
endfacet
facet normal -9.9237812256997239E-17 0 1
outer loop
vertex 17 2.1 7
vertex -0.9 3 7
vertex -0.9 2.1 7
endloop
endfacet
facet normal 1 0 0
outer loop
vertex 17.1 3 6.9
vertex 17.1 2.1 6.9
vertex 17.1 2.1 1
endloop
endfacet
facet normal 1 0 0
outer loop
vertex 17.1 10.1 7
vertex 17.1 9.6 7
vertex 17.1 10.1 6.9
endloop
endfacet
facet normal 1 0 0
outer loop
vertex 17.1 9.6 7
vertex 17.1 9.6 6.9
vertex 17.1 10.1 6.9
endloop
endfacet
facet normal 0.99999999999999989 0 0
outer loop
vertex 17.1 3.5 6.9
vertex 17.1 3.5 7
vertex 17.1 3 7
endloop
endfacet
facet normal 0.99999999999999989 0 0
outer loop
vertex 17.1 3 7
vertex 17.1 3 6.9
vertex 17.1 3.5 6.9
endloop
endfacet
facet normal 1 0 0
outer loop
vertex 17.1 3 6.9
vertex 17.1 2.1 1
vertex 17.1 3.5 6.9
endloop
endfacet
facet normal 1 0 0
outer loop
vertex 17.1 3.5 6.9
vertex 17.1 2.1 1
vertex 17.1 9.6 6.9
endloop
endfacet
facet normal 1 0 0
outer loop
vertex 17.1 2.1 1
vertex 17.1 11 1
vertex 17.1 9.6 6.9
endloop
endfacet
facet normal 1 0 0
outer loop
vertex 17.1 9.6 6.9
vertex 17.1 11 1
vertex 17.1 10.1 6.9
endloop
endfacet
facet normal 1 0 0
outer loop
vertex 17.1 11 1
vertex 17.1 11 6.9
vertex 17.1 10.1 6.9
endloop
endfacet
facet normal 0.70710678118654446 0 0.70710678118655068
outer loop
vertex 17 9.6 7
vertex 17 3.5 7
vertex 17.1 9.6 6.9
endloop
endfacet
facet normal 0.70710678118654446 0 0.70710678118655068
outer loop
vertex 17 3.5 7
vertex 17.1 3.5 6.9
vertex 17.1 9.6 6.9
endloop
endfacet
facet normal 0 -1 0
outer loop
vertex 17.1 9.6 6.9
vertex 17.1 9.6 7
vertex 17 9.6 7
endloop
endfacet
facet normal 0 1 0
outer loop
vertex 17 3.5 7
vertex 17.1 3.5 7
vertex 17.1 3.5 6.9
endloop
endfacet
endsolid
